<?xml version="1.0" encoding="utf-8"?>
<!-- Generator: Adobe Illustrator 19.0.0, SVG Export Plug-In . SVG Version: 6.00 Build 0)  -->
<svg version="1.1" id="Layer_1" xmlns="http://www.w3.org/2000/svg" xmlns:xlink="http://www.w3.org/1999/xlink" x="0px" y="0px"
	 viewBox="681 91.6 204.7 52.5" style="enable-background:new 681 91.6 204.7 52.5;" xml:space="preserve">
<style type="text/css">
	.st0{fill:#FFFFFF;}
	.st1{fill:#1CA95D;}
	.st2{fill:#718339;}
	.st3{fill:#B3CD3B;}
	.st4{fill:#6A5E9C;}
	.st5{fill:#669AD2;}
	.st6{fill:#E23D2C;}
	.st7{fill:#A93F2B;}
	.st8{fill:#F59C21;}
	.st9{fill:#2FAAE1;}
	.st10{fill:#005691;}
</style>
<g id="XMLID_1_">
	<g>
		<path class="st0" d="M760.7,130.2h3.8v1H762v1.2h2.2v1H762v1.4h2.6v1h-3.9V130.2z"/>
		<path class="st0" d="M766.9,130.2h1.3l2.3,3.7v-3.7h1.3v5.7h-1.3l-2.3-3.7v3.7h-1.3V130.2z"/>
		<path class="st0" d="M774.3,130.2h1.3l2.3,3.7v-3.7h1.3v5.7h-1.3l-2.3-3.7v3.7h-1.3V130.2z"/>
		<path class="st0" d="M781.7,130.2h3.8v1H783v1.2h2.2v1H783v1.4h2.6v1h-3.9L781.7,130.2L781.7,130.2z"/>
		<path class="st0" d="M793.1,136h-1.4l-0.4-1.2h-2.1l-0.4,1.2h-1.4l2-5.7h1.6L793.1,136z M789.5,133.8h1.4l-0.7-2.3L789.5,133.8z"
			/>
		<path class="st0" d="M797.4,130.2c1.1,0,2,0.5,2.5,1.3l-1.1,0.5c-0.3-0.5-0.7-0.8-1.3-0.8c-0.8,0-1.5,0.6-1.5,1.9
			c0,1.2,0.7,1.9,1.6,1.9c0.5,0,0.9-0.2,1.1-0.4v-0.8h-1.2v-0.9h2.4v2.2c-0.5,0.7-1.3,1.1-2.4,1.1c-1.7,0-2.9-1.2-2.9-3
			C794.7,131.3,795.8,130.2,797.4,130.2z"/>
		<path class="st0" d="M805.6,133.6l1.5,2.4h-1.4l-1.2-2.2h-0.8v2.2h-1.3v-5.7h2.1c1.4,0,2.3,0.6,2.3,1.8
			C806.7,132.8,806.3,133.4,805.6,133.6z M804.4,131.3h-0.8v1.5h0.8c0.7,0,1-0.2,1-0.8S805.1,131.3,804.4,131.3z"/>
		<path class="st0" d="M814.4,136H813l-0.4-1.2h-2.1l-0.4,1.2h-1.4l2-5.7h1.6L814.4,136z M810.9,133.8h1.4l-0.7-2.3L810.9,133.8z"/>
		<path class="st0" d="M819.1,134.9l-1.4-2.5v3.6h-1.3v-5.7h1.3l1.7,3.3l1.7-3.3h1.3v5.7h-1.3v-3.6l-1.4,2.5H819.1L819.1,134.9z"/>
		<path class="st0" d="M763.5,142.3c0-0.4-0.2-0.6-1.2-0.9c-1.2-0.3-1.7-0.9-1.7-1.8c0-0.9,0.7-1.6,2-1.6c0.8,0,1.6,0.3,2.1,0.9
			l-0.9,0.6c-0.3-0.3-0.7-0.5-1.1-0.5c-0.5,0-0.8,0.2-0.8,0.5c0,0.3,0.2,0.6,1.1,0.8c1.2,0.4,1.8,0.8,1.8,1.8c0,1-0.8,1.7-2.1,1.7
			c-1,0-1.8-0.4-2.4-1l0.9-0.7c0.4,0.4,0.8,0.7,1.4,0.7C763.2,142.9,763.5,142.7,763.5,142.3z"/>
		<path class="st0" d="M769.4,144c-1.7,0-2.7-1.3-2.7-3c0-1.7,1-3,2.7-3s2.7,1.3,2.7,3C772.1,142.7,771.1,144,769.4,144z
			 M769.4,142.9c0.8,0,1.4-0.7,1.4-1.9s-0.5-1.9-1.4-1.9c-0.8,0-1.4,0.7-1.4,1.9C768,142.2,768.6,142.9,769.4,142.9z"/>
		<path class="st0" d="M774.3,138.2h1.3v4.7h2.5v1.1h-3.8V138.2z"/>
		<path class="st0" d="M780,141.6v-3.4h1.3v3.4c0,0.8,0.4,1.3,1.1,1.3s1.2-0.5,1.2-1.3v-3.4h1.3v3.4c0,1.6-1,2.4-2.5,2.4
			C781,144,780,143.2,780,141.6z"/>
		<path class="st0" d="M788.6,139.2h-1.7v-1.1h4.6v1.1h-1.7v4.7h-1.3V139.2L788.6,139.2z"/>
		<path class="st0" d="M795,138.2v5.7h-1.3v-5.7H795L795,138.2z"/>
		<path class="st0" d="M799.9,144c-1.7,0-2.7-1.3-2.7-3c0-1.7,1-3,2.7-3c1.7,0,2.7,1.3,2.7,3C802.7,142.7,801.6,144,799.9,144z
			 M799.9,142.9c0.8,0,1.4-0.7,1.4-1.9s-0.5-1.9-1.4-1.9c-0.8,0-1.4,0.7-1.4,1.9S799.1,142.9,799.9,142.9z"/>
		<path class="st0" d="M804.8,138.2h1.3l2.3,3.7v-3.7h1.3v5.7h-1.3l-2.3-3.7v3.7h-1.3V138.2z"/>
		<path class="st0" d="M814.9,142.3c0-0.4-0.2-0.6-1.2-0.9c-1.2-0.3-1.7-0.9-1.7-1.8c0-0.9,0.7-1.6,2-1.6c0.8,0,1.6,0.3,2.1,0.9
			l-0.9,0.6c-0.3-0.3-0.7-0.5-1.1-0.5c-0.5,0-0.8,0.2-0.8,0.5c0,0.3,0.2,0.6,1.1,0.8c1.2,0.4,1.8,0.8,1.8,1.8c0,1-0.8,1.7-2.1,1.7
			c-1,0-1.8-0.4-2.4-1l0.9-0.7c0.4,0.4,0.8,0.7,1.4,0.7C814.6,142.9,814.9,142.7,814.9,142.3z"/>
	</g>
	<g>
		<path class="st0" d="M692.8,107.9v2.1c0.6-0.8,1.3-1.4,2.1-1.8c0.8-0.4,1.7-0.6,2.7-0.6c1.3,0,2.4,0.2,3.4,0.7
			c1,0.5,1.8,1.2,2.4,2.2c0.4,0.7,0.7,1.4,0.9,2.2c0.2,0.8,0.3,2.1,0.3,3.7v9.5h-4.1v-8c0-2.4-0.3-4.1-0.8-5
			c-0.5-0.9-1.5-1.3-2.8-1.3c-1.4,0-2.4,0.5-3,1.5c-0.6,1-0.9,2.7-0.9,5.1v7.7h-4v-18H692.8z"/>
		<path class="st0" d="M708.5,126v-14.3h-2.7v-3.7h2.7v-5.8h4.1v5.8h2.7v3.7h-2.7V126H708.5L708.5,126z"/>
		<path class="st0" d="M720.6,118.3c0.1,1.3,0.6,2.3,1.5,3.1s2,1.1,3.4,1.1c0.9,0,1.8-0.2,2.5-0.6c0.7-0.4,1.3-0.9,1.8-1.7h4.5
			c-0.8,2-1.9,3.5-3.4,4.6s-3.2,1.6-5.2,1.6c-1.3,0-2.6-0.2-3.7-0.7s-2.1-1.2-3-2.1c-0.8-0.9-1.5-1.9-2-3.1
			c-0.5-1.2-0.7-2.4-0.7-3.6c0-1.3,0.2-2.4,0.6-3.6c0.4-1.1,1.1-2.1,1.9-3c0.9-1,1.9-1.7,3.1-2.2c1.1-0.5,2.3-0.8,3.5-0.8
			c1.5,0,3,0.4,4.3,1.1c1.3,0.7,2.5,1.7,3.4,3c0.6,0.8,1,1.6,1.3,2.6c0.3,1,0.4,2.1,0.4,3.3c0,0.1,0,0.2,0,0.5s0,0.4,0,0.5
			L720.6,118.3L720.6,118.3z M730.4,114.9c-0.4-1.2-1-2.1-1.8-2.7c-0.8-0.6-1.9-0.9-3.2-0.9c-1.1,0-2.1,0.3-3,1
			c-0.9,0.7-1.5,1.6-1.8,2.7H730.4z"/>
		<path class="st0" d="M768.3,111.6c-1.6,0.1-2.7,0.6-3.4,1.3c-0.6,0.7-1,2-1,3.9v9.2h-4.1v-18h3.9v2.1c0.6-0.8,1.3-1.4,2.1-1.8
			c0.7-0.4,1.6-0.6,2.5-0.6V111.6z"/>
		<path class="st0" d="M783.5,126v-2.2c-0.5,0.9-1.2,1.6-2.1,2c-0.9,0.4-2.1,0.6-3.5,0.6c-2.6,0-4.8-0.9-6.6-2.7
			c-1.8-1.8-2.7-4.1-2.7-6.8c0-1.3,0.2-2.5,0.7-3.6c0.4-1.1,1.1-2.1,1.9-3c0.9-1,1.9-1.7,3-2.1c1.1-0.5,2.3-0.7,3.6-0.7
			c1.3,0,2.4,0.2,3.3,0.7s1.7,1.1,2.3,2v-2.2h4v18L783.5,126L783.5,126z M772.9,116.8c0,1.5,0.5,2.8,1.5,3.8c1,1,2.2,1.5,3.7,1.5
			c1.3,0,2.5-0.5,3.4-1.5c1-1,1.5-2.2,1.5-3.6c0-1.5-0.5-2.7-1.5-3.8s-2.2-1.6-3.5-1.6c-1.4,0-2.6,0.5-3.6,1.5
			C773.5,114.1,772.9,115.3,772.9,116.8z"/>
		<path class="st0" d="M792.4,126v-14.3h-2.7v-3.7h2.7v-5.8h4.1v5.8h2.7v3.7h-2.7V126H792.4L792.4,126z"/>
		<path class="st0" d="M817.5,126h-3.3l-6.8-18h4.4l4.1,12l4.3-12h4.3L817.5,126z"/>
		<path class="st0" d="M828.4,118.3c0.1,1.3,0.6,2.3,1.5,3.1c0.9,0.8,2,1.1,3.4,1.1c0.9,0,1.8-0.2,2.5-0.6c0.7-0.4,1.3-0.9,1.8-1.7
			h4.5c-0.8,2-1.9,3.5-3.4,4.6s-3.2,1.6-5.2,1.6c-1.3,0-2.6-0.2-3.7-0.7s-2.1-1.2-3-2.1c-0.8-0.9-1.5-1.9-2-3.1
			c-0.5-1.2-0.7-2.4-0.7-3.6c0-1.3,0.2-2.4,0.6-3.6c0.4-1.1,1.1-2.1,1.9-3c0.9-1,1.9-1.7,3.1-2.2c1.1-0.5,2.3-0.8,3.5-0.8
			c1.5,0,3,0.4,4.3,1.1c1.3,0.7,2.5,1.7,3.4,3c0.6,0.8,1,1.6,1.3,2.6c0.3,1,0.4,2.1,0.4,3.3c0,0.1,0,0.2,0,0.5c0,0.2,0,0.4,0,0.5
			L828.4,118.3L828.4,118.3z M838.2,114.9c-0.4-1.2-1-2.1-1.8-2.7c-0.8-0.6-1.9-0.9-3.2-0.9c-1.1,0-2.1,0.3-3,1
			c-0.9,0.7-1.5,1.6-1.8,2.7H838.2z"/>
		<g>
			<path class="st0" d="M683.7,97.8c0.8,0,1.4,0.3,1.9,0.8c0.5,0.5,0.8,1.1,0.8,1.9s-0.3,1.4-0.8,1.9c-0.5,0.5-1.2,0.8-1.9,0.8
				c-1.5,0-2.7-1.2-2.7-2.7C681,99,682.2,97.8,683.7,97.8z"/>
			<rect id="XMLID_31_" x="681.6" y="108" class="st0" width="4.2" height="18"/>
		</g>
		<g>
			<path class="st0" d="M803.3,97.8c0.8,0,1.4,0.3,1.9,0.8c0.5,0.5,0.8,1.1,0.8,1.9s-0.3,1.4-0.8,1.9c-0.5,0.5-1.2,0.8-1.9,0.8
				c-1.5,0-2.7-1.2-2.7-2.7C800.6,99,801.8,97.8,803.3,97.8z"/>
			<rect id="XMLID_29_" x="801.2" y="108" class="st0" width="4.2" height="18"/>
		</g>
		<g>
			<path class="st0" d="M755.2,130.3c-1.4-1.2-3.3-1.7-5.7-1.7c-0.7,0-1.7,0.1-3.1,0.4c-1.4,0.2-2.4,0.4-3.1,0.4
				c-1.5,0-2.3-0.3-2.3-0.9c0-0.5,0.4-0.8,1.1-1.1c0.7-0.3,1.3-0.5,1.7-0.5l3.6-0.4c2.5-0.2,4.6-1.2,6.1-2.9
				c1.6-1.7,2.3-3.8,2.3-6.3c0-2.2-0.5-4.1-1.5-5.5h2.7v-3.8h-11.4l0,0c-2.5,0.1-4.6,0.9-6.3,2.6c-1.8,1.7-2.7,3.9-2.7,6.5
				c0,4,1.7,6.9,5.2,8.5c-1.2,0.3-2.2,0.8-3.1,1.4c-0.8,0.7-1.2,1.4-1.2,2.2c0,2.7,1.8,4,5.3,4c0.7,0,1.7-0.1,3-0.4
				c1.3-0.2,2.2-0.4,2.7-0.4c2.9,0,4.3,1,4.3,3c0,1-0.6,1.9-1.7,2.6c-1.1,0.7-2.7,1-4.7,1c-1.9,0-4-0.7-6.3-2.1l-3.1,3.1
				c1.1,0.8,2.5,1.5,4.2,2c1.8,0.6,3.5,0.9,5.1,0.9c3.1,0,5.7-0.7,7.8-2.1c2-1.4,3.1-3.2,3.1-5.5
				C757.2,133.1,756.5,131.5,755.2,130.3z M741.2,117c0-1.5,0.5-2.8,1.4-3.9c1-1.1,2.2-1.6,3.7-1.6c1.4,0,2.6,0.5,3.5,1.6
				c0.9,1.1,1.4,2.4,1.4,3.9c0,1.8-0.4,3.2-1.3,4.3c-0.9,1.1-2.1,1.7-3.7,1.7c-1.6,0-2.8-0.6-3.8-1.7
				C741.7,120.1,741.2,118.7,741.2,117z"/>
		</g>
	</g>
	<g>
		<path class="st0" d="M885.7,110.9c0-10.7-8.7-19.3-19.3-19.3c-10.7,0-19.3,8.6-19.3,19.3c0,9.6,7,17.6,16.2,19.1l6.5-10.6
			c-1.1,0.4-2.2,0.7-3.5,0.7c-5,0-9.1-4.1-9.1-9.1c0-5,4.1-9.1,9.1-9.1s9.1,4.1,9.1,9.1c0,1.9-0.6,3.7-1.6,5.1l0,0l-8.6,14.2
			c0,0,0,0,0,0l-9.1,13.9h11.2l13-19.9c0.1-0.2,0.3-0.4,0.4-0.6C883.9,120.2,885.7,115.7,885.7,110.9z M874.8,116.5
			C874.9,116.5,874.9,116.5,874.8,116.5c1.1-1.8,1.7-3.7,1.7-5.7c0-5.6-4.6-10.2-10.2-10.2c-5.6,0-10.2,4.6-10.2,10.2
			s4.6,10.2,10.2,10.2c0.4,0,0.8,0,1.1-0.1l-4.7,7.8c-8.5-1.7-14.6-9.1-14.6-17.9c0-10,8.2-18.2,18.2-18.2
			c10.1,0,18.2,8.2,18.2,18.2c0,9.8-7.7,17.7-17.4,18.2L874.8,116.5z"/>
		<g>
			<path id="XMLID_24_" class="st1" d="M867.3,129.1c4.1-0.2,7.8-1.7,10.8-4.2l-4.8-5.7L867.3,129.1z"/>
			<path id="XMLID_23_" class="st2" d="M874.9,116.5C874.9,116.5,874.9,116.5,874.9,116.5l-1.6,2.7l4.8,5.7
				c3.3-2.7,5.5-6.5,6.3-10.8l-7.9-1.4C876.2,114,875.7,115.3,874.9,116.5z"/>
			<path id="XMLID_22_" class="st3" d="M876.6,110.9c0,0.6-0.1,1.2-0.2,1.8l7.9,1.4c0.2-1,0.3-2.1,0.3-3.2c0-3.3-0.9-6.5-2.5-9.2
				l-7,4C876,107.2,876.6,109,876.6,110.9z"/>
			<path id="XMLID_21_" class="st4" d="M859.8,118.6c-1.8-1.5-3-3.6-3.4-6l-6.6,1.2c-0.5,0.1-0.9,0.2-1.3,0.2
				c0.7,4.3,2.9,8.1,6.1,10.8c0.3-0.4,0.6-0.7,0.9-1.1C856.9,122,858.3,120.3,859.8,118.6z"/>
			<path id="XMLID_20_" class="st5" d="M856.4,112.6c-0.1-0.6-0.2-1.1-0.2-1.7c0-1.8,0.5-3.6,1.4-5l-7-4c-1.5,2.7-2.4,5.8-2.4,9.1
				c0,1.1,0.1,2.1,0.3,3.1c0.4-0.1,0.9-0.2,1.3-0.2L856.4,112.6z"/>
			<path id="XMLID_19_" class="st6" d="M862.8,101.4l-2.8-7.6c-4,1.5-7.3,4.4-9.5,8l7,4C858.7,103.8,860.6,102.2,862.8,101.4z"/>
			<path id="XMLID_18_" class="st7" d="M866.4,100.7c1.2,0,2.3,0.2,3.3,0.6l2.8-7.6c-1.9-0.7-4-1.1-6.1-1.1c-2.2,0-4.4,0.4-6.3,1.1
				l2.8,7.6C863.9,100.9,865.1,100.7,866.4,100.7z"/>
			<path id="XMLID_17_" class="st8" d="M872.5,93.7l-2.8,7.6c2.3,0.8,4.2,2.4,5.4,4.4l7-4C880,98,876.6,95.1,872.5,93.7z"/>
			<path id="XMLID_16_" class="st9" d="M855.5,123.7l4.3-5.1l0,0C858.3,120.3,856.9,122,855.5,123.7z"/>
			<path id="XMLID_15_" class="st10" d="M866.4,121c0,0-0.1,0-0.1,0c-0.9,0-1.8-0.2-2.7-0.4c-1.4-0.4-2.7-1.1-3.8-2.1l-4.3,5.1
				c-0.3,0.4-0.6,0.7-0.9,1.1c2.3,1.9,5.1,3.3,8.2,4l1.7-2.8l1.8-2.9l1.3-2.1C867.2,121,866.8,121,866.4,121z"/>
		</g>
	</g>
</g>
</svg>
