<?xml version="1.0" encoding="utf-8"?>
<!-- Generator: Adobe Illustrator 19.0.0, SVG Export Plug-In . SVG Version: 6.00 Build 0)  -->
<svg version="1.1" id="Layer_1" xmlns="http://www.w3.org/2000/svg" xmlns:xlink="http://www.w3.org/1999/xlink" x="0px" y="0px"
	 viewBox="0 0 1916.6 603.9" style="enable-background:new 0 0 1916.6 603.9;" xml:space="preserve">
<style type="text/css">
	.st0{fill:#4E4D4F;}
	.st1{fill:#B3CD3B;}
	.st2{fill:#6A5E9C;}
	.st3{fill:#669AD2;}
	.st4{fill:#E23D2C;}
	.st5{fill:#A93F2B;}
	.st6{fill:#F59C21;}
	.st7{fill:#005691;}
	.st8{fill:#1CA95D;}
	.st9{fill:#718339;}
</style>
<g id="XMLID_1_">
	<g id="XMLID_59_">
		<path id="XMLID_99_" class="st0" d="M747.9,417.4h35.7v9.7H760v11.4h20.9v9.7H760v12.9h24.2v9.7h-36.4V417.4z"/>
		<path id="XMLID_97_" class="st0" d="M806,417.4h11.8l21,34.2v-34.2h11.7v53.4h-11.8l-21-34.2v34.2H806V417.4z"/>
		<path id="XMLID_95_" class="st0" d="M874.9,417.4h11.8l21,34.2v-34.2h11.7v53.4h-11.8l-21-34.2v34.2h-11.7V417.4z"/>
		<path id="XMLID_93_" class="st0" d="M943.7,417.4h35.7v9.7h-23.6v11.4h20.9v9.7h-20.9v12.9h24.2v9.7h-36.4V417.4z"/>
		<path id="XMLID_90_" class="st0" d="M1049.9,470.8h-13l-3.5-11H1014l-3.4,11h-13l18.6-53.4h15.1L1049.9,470.8z M1017,450.2h13.4
			l-6.7-21.3L1017,450.2z"/>
		<path id="XMLID_88_" class="st0" d="M1090.3,416.5c10.4,0,18.3,4.3,23,12.3l-10.1,4.9c-2.7-4.6-6.6-7.1-12.4-7.1
			c-7.4,0-13.8,6-13.8,17.5c0,11.4,6.5,17.5,14.6,17.5c4.3,0,8.2-1.4,10.2-4.1v-7.3h-10.8v-8.8h22.3v20.6c-4.8,6.1-12.4,9.8-22,9.8
			c-15.6,0-26.8-10.8-26.8-27.6C1064.7,427.4,1075.3,416.5,1090.3,416.5z"/>
		<path id="XMLID_85_" class="st0" d="M1166.8,448.7l13.6,22h-13.1l-11.6-20.4h-7.4v20.4h-12.1v-53.4h19.4
			c13.3,0,21.4,5.4,21.4,16.6C1177.1,441.4,1173.2,446.3,1166.8,448.7z M1155.7,426.8h-7.4V441h7.4c6.1,0,9.2-2.2,9.2-7.1
			C1165,429.1,1161.8,426.8,1155.7,426.8z"/>
		<path id="XMLID_82_" class="st0" d="M1248.5,470.8h-13l-3.5-11h-19.4l-3.4,11h-13l18.6-53.4h15.1L1248.5,470.8z M1215.6,450.2
			h13.4l-6.7-21.3L1215.6,450.2z"/>
		<path id="XMLID_80_" class="st0" d="M1292.8,461.1l-12.6-23.7v33.4h-11.7v-53.4h12.1l15.9,30.6l15.9-30.6h12.1v53.4h-11.7v-33.4
			l-12.6,23.7H1292.8z"/>
		<path id="XMLID_78_" class="st0" d="M774.5,530.1c0-3.6-1.6-5.6-11.6-8.4c-11.2-3.2-16-8.8-16-16.5c0-8.8,6.6-15.1,18.2-15.1
			c7.8,0,14.9,3,19.6,8.6l-8.2,6c-2.6-3.1-6.3-4.9-10.3-4.9c-4.8,0-7.1,2-7.1,4.9c0,3.2,2.3,5.3,10.5,7.8
			c11.6,3.5,17.1,7.8,17.1,16.8c0,9.6-7.7,16-19.8,16c-9.2,0-16.9-3.3-22.3-9.5l8.7-6.4c3.3,3.7,7.8,6.2,13,6.2
			C771.6,535.5,774.5,533.4,774.5,530.1z"/>
		<path id="XMLID_75_" class="st0" d="M829.6,545.3c-15.8,0-25.2-11.9-25.2-27.6c0-15.7,9.5-27.6,25.2-27.6
			c15.8,0,25.2,11.9,25.2,27.6C854.8,533.4,845.4,545.3,829.6,545.3z M829.6,535.1c7.9,0,13-6.7,13-17.5c0-10.8-5-17.5-13-17.5
			c-7.9,0-13,6.7-13,17.5C816.6,528.4,821.7,535.1,829.6,535.1z"/>
		<path id="XMLID_73_" class="st0" d="M875,491h12.1v43.4h23.7v10H875V491z"/>
		<path id="XMLID_71_" class="st0" d="M928.6,522.8V491h12.1v32.1c0,7.9,3.5,12,10.7,12c7.2,0,10.8-4.2,10.8-12V491h12.1v31.8
			c0,14.8-9,22.5-22.9,22.5C937.9,545.3,928.6,537.6,928.6,522.8z"/>
		<path id="XMLID_69_" class="st0" d="M1008.2,501h-15.4v-10h42.9v10h-15.4v43.4h-12.1V501z"/>
		<path id="XMLID_67_" class="st0" d="M1068.2,491v53.4H1056V491H1068.2z"/>
		<path id="XMLID_64_" class="st0" d="M1114,545.3c-15.8,0-25.2-11.9-25.2-27.6c0-15.7,9.5-27.6,25.2-27.6s25.2,11.9,25.2,27.6
			C1139.2,533.4,1129.7,545.3,1114,545.3z M1114,535.1c7.9,0,13-6.7,13-17.5c0-10.8-5-17.5-13-17.5c-7.9,0-13,6.7-13,17.5
			C1101,528.4,1106,535.1,1114,535.1z"/>
		<path id="XMLID_62_" class="st0" d="M1159.4,491h11.8l21,34.2V491h11.7v53.4h-11.8l-21-34.2v34.2h-11.7V491z"/>
		<path id="XMLID_60_" class="st0" d="M1253.4,530.1c0-3.6-1.6-5.6-11.6-8.4c-11.2-3.2-16-8.8-16-16.5c0-8.8,6.6-15.1,18.2-15.1
			c7.8,0,14.9,3,19.6,8.6l-8.2,6c-2.6-3.1-6.3-4.9-10.3-4.9c-4.8,0-7.1,2-7.1,4.9c0,3.2,2.3,5.3,10.5,7.8
			c11.6,3.5,17.1,7.8,17.1,16.8c0,9.6-7.7,16-19.8,16c-9.2,0-16.9-3.3-22.3-9.5l8.7-6.4c3.3,3.7,7.8,6.2,13,6.2
			C1250.4,535.5,1253.4,533.4,1253.4,530.1z"/>
	</g>
	<g id="XMLID_48_">
		<path id="XMLID_58_" class="st0" d="M1846.5,373.3c-30.5,25.4-69.6,40.9-112.3,41.3v0.1l-1.4,0c-0.2,0-0.4,0-0.6,0
			c-0.3,0-0.6-0.1-0.9-0.1c0,0,0,0,0,0l-7.1-0.1l-86.2,131.2h104.5L1864,360.7c3.7-5.4,7-11,10.3-16.8
			C1866.2,354.7,1856.9,364.6,1846.5,373.3z"/>
		<path id="XMLID_57_" class="st1" d="M1886.3,146.7l-81,46.8c7.4,12.6,11.8,27.2,11.8,42.9c0,5-0.5,9.9-1.3,14.6l92.1,16.3
			c1.8-10.1,2.9-20.3,2.9-30.9C1910.7,203.7,1901.7,173.1,1886.3,146.7z"/>
		<path id="XMLID_56_" class="st2" d="M1648.9,250.7c-1.9,0.3-3.7,0.6-5.6,1l-65.5,11.5c-7.3,1.3-14.3,2.5-21.1,3.7
			c7.3,42,29.2,79,60.4,105.5c4.5-5.4,9.1-10.9,14-16.7l46.2-55C1662.6,288.1,1652.3,270.6,1648.9,250.7z"/>
		<path id="XMLID_55_" class="st3" d="M1658.8,194.3l-81.1-46.8c-15.1,26.2-23.8,56.5-23.8,88.9c0,10.4,1.1,20.6,2.8,30.6
			c6.7-1.2,13.8-2.4,21.1-3.7l65.5-11.5l5.6-1c-0.8-4.7-1.3-9.4-1.3-14.3C1647.6,221,1651.7,206.7,1658.8,194.3z"/>
		<path id="XMLID_54_" class="st4" d="M1702.6,157.1l-32-87.9c-39.3,14.5-72.1,42.4-92.8,78.3l81.1,46.8
			C1668.6,177.3,1684.1,164.1,1702.6,157.1z"/>
		<path id="XMLID_53_" class="st5" d="M1760.4,156.6l32-87.9c-18.8-6.7-39-10.6-60.1-10.6c-21.7,0-42.4,4.1-61.7,11.2l32,87.9
			c9.3-3.4,19.2-5.4,29.6-5.4C1742.1,151.7,1751.6,153.5,1760.4,156.6z"/>
		<path id="XMLID_52_" class="st6" d="M1805.3,193.5l81-46.8c-21-36-54.2-63.8-93.9-78.1l-32,87.9
			C1779.4,163.3,1795.2,176.5,1805.3,193.5z"/>
		<path id="XMLID_51_" class="st7" d="M1764.4,314.8c-9.9,4.1-20.7,6.3-32.1,6.3c-0.3,0-0.6,0-0.9,0l0,0c-2.5,0-4.9-0.2-7.4-0.4
			c-0.3,0-0.5-0.1-0.8-0.1c-2.2-0.2-4.3-0.5-6.4-0.9c-0.4-0.1-0.8-0.1-1.1-0.2c-2.1-0.4-4.2-0.9-6.2-1.5c-0.2-0.1-0.5-0.1-0.7-0.2
			c-11.8-3.4-22.5-9.3-31.5-17c-15,17.9-31.3,37.2-46.2,55c-4.9,5.8-9.5,11.4-14,16.7c24.4,20.7,54.5,34.8,87.6,40l23.7-38.8
			L1764.4,314.8z"/>
		<path id="XMLID_50_" class="st8" d="M1731.4,402.7l-7.1,11.9l7.1,0.2c0,0,0,0,0,0c0.3,0,0.6,0.1,0.9,0.1c0.2,0,0.4,0,0.6,0l1.4,0
			v-0.1c42.7-0.5,81.8-15.9,112.3-41.3l-56.9-67.9L1731.4,402.7z"/>
		<path id="XMLID_49_" class="st9" d="M1815.7,251c-2.1,12.1-6.8,23.4-13.5,33.1l0.2-0.1l-12.8,21.3l56.9,67.9
			c31.7-26.5,53.9-63.7,61.3-106L1815.7,251z"/>
	</g>
	<g id="XMLID_16_">
		<path id="XMLID_46_" class="st0" d="M115.8,209.3v19.1c5.6-7.6,12.1-13.3,19.4-17c7.3-3.7,15.6-5.5,25-5.5c12,0,22.4,2.3,31.3,6.9
			c8.9,4.6,16.3,11.5,22.2,20.6c3.8,6.1,6.6,13.1,8.2,20.8c1.7,7.8,2.5,19.2,2.5,34.2v88.9h-38.6V303c0-22.5-2.6-37.9-7.7-46.3
			c-5.1-8.4-14-12.5-26.5-12.5c-12.9,0-22.1,4.6-27.7,13.8c-5.6,9.2-8.5,25-8.5,47.4v72H78.1V209.3H115.8z"/>
		<path id="XMLID_44_" class="st0" d="M262.2,377.4V244.2h-25.3v-34.8h25.3v-54.4h38.6v54.4h25.5v34.8h-25.5v133.2H262.2z"/>
		<path id="XMLID_41_" class="st0" d="M374.8,305.7c1.3,12.1,6,21.7,14.2,28.7c8.2,7,18.8,10.5,31.7,10.5c8.6,0,16.4-1.8,23.3-5.5
			c6.9-3.7,12.3-8.8,16.4-15.4h41.6c-7,18.3-17.6,32.6-31.6,42.7c-14,10.1-30.2,15.2-48.6,15.2c-12.4,0-23.8-2.2-34.2-6.6
			c-10.4-4.4-19.7-11-28-19.6c-7.8-8.3-13.9-17.8-18.2-28.7c-4.3-10.9-6.5-22-6.5-33.4c0-11.7,2-22.7,6-33.1
			c4-10.3,9.8-19.6,17.6-27.9c8.4-9.1,18-16,28.7-20.9c10.7-4.9,21.7-7.3,33-7.3c14.4,0,27.8,3.3,40.3,9.9c12.5,6.6,23.1,16,31.8,28
			c5.3,7.2,9.3,15.3,11.8,24.3c2.6,9,3.8,19.3,3.8,30.9c0,0.9-0.1,2.3-0.2,4.2c-0.1,1.9-0.1,3.3-0.1,4.2H374.8z M466.4,274.7
			c-3.3-11.2-8.9-19.7-16.7-25.6c-7.8-5.9-17.6-8.8-29.5-8.8c-10.3,0-19.5,3.2-27.6,9.5c-8.2,6.3-13.6,14.6-16.4,24.9H466.4z"/>
		<path id="XMLID_39_" class="st0" d="M818.8,243.4c-15,1.2-25.4,5.2-31.4,11.9c-5.9,6.7-8.9,18.9-8.9,36.4v85.7h-38.6V209.3h36.2
			v19.4c5.8-7.5,12.2-13.1,19.2-16.6c6.9-3.5,14.8-5.3,23.5-5.3V243.4z"/>
		<path id="XMLID_36_" class="st0" d="M960.8,377.4v-20.6c-4.6,8.4-11.1,14.5-19.5,18.5c-8.4,4-19.1,6-32.2,6
			c-24.5,0-45-8.5-61.4-25.4c-16.4-17-24.7-38-24.7-63.2c0-11.8,2.1-23,6.2-33.6c4.1-10.6,10-19.9,17.6-28
			c8.2-8.9,17.4-15.4,27.5-19.6c10-4.2,21.4-6.3,33.9-6.3c12.1,0,22.4,2,31.1,6.1c8.7,4.1,15.7,10.2,21,18.5v-20.3H998v168.1H960.8z
			 M862.5,292c0,14.2,4.7,26,13.9,35.5c9.3,9.5,20.6,14.3,34,14.3c12.2,0,22.9-4.8,32.1-14.4c9.2-9.6,13.9-20.8,13.9-33.6
			c0-13.7-4.7-25.4-14-35.2c-9.3-9.8-20.2-14.8-32.6-14.8c-13.1,0-24.2,4.7-33.5,14C867.1,267.2,862.5,278.5,862.5,292z"/>
		<path id="XMLID_34_" class="st0" d="M1043.9,377.4V244.2h-25.3v-34.8h25.3v-54.4h38.6v54.4h25.5v34.8h-25.5v133.2H1043.9z"/>
		<path id="XMLID_32_" class="st0" d="M1277,377.4h-30.3l-63-168.1h41.2l38.6,111.7l39.8-111.7h40.1L1277,377.4z"/>
		<path id="XMLID_29_" class="st0" d="M1378.8,305.7c1.3,12.1,6,21.7,14.2,28.7c8.2,7,18.8,10.5,31.7,10.5c8.6,0,16.4-1.8,23.3-5.5
			c6.9-3.7,12.3-8.8,16.4-15.4h41.6c-7,18.3-17.6,32.6-31.6,42.7c-14,10.1-30.2,15.2-48.6,15.2c-12.4,0-23.8-2.2-34.2-6.6
			c-10.4-4.4-19.7-11-28-19.6c-7.9-8.3-13.9-17.8-18.3-28.7c-4.3-10.9-6.5-22-6.5-33.4c0-11.7,2-22.7,6-33.1
			c4-10.3,9.8-19.6,17.6-27.9c8.4-9.1,18-16,28.6-20.9c10.7-4.9,21.7-7.3,33-7.3c14.4,0,27.8,3.3,40.3,9.9c12.5,6.6,23.1,16,31.8,28
			c5.3,7.2,9.3,15.3,11.8,24.3c2.6,9,3.8,19.3,3.8,30.9c0,0.9-0.1,2.3-0.1,4.2c-0.1,1.9-0.2,3.3-0.2,4.2H1378.8z M1470.4,274.7
			c-3.3-11.2-8.9-19.7-16.7-25.6c-7.8-5.9-17.6-8.8-29.5-8.8c-10.3,0-19.5,3.2-27.6,9.5c-8.1,6.3-13.6,14.6-16.4,24.9H1470.4z"/>
		<g id="XMLID_25_">
			<path id="XMLID_27_" class="st0" d="M30.9,115.5c7,0,13,2.5,17.9,7.4c4.9,4.6,7.4,10.6,7.4,17.6c0,7-2.5,13-7.4,17.9
				c-4.9,4.9-10.9,7.4-17.6,7.4C17.2,165.8,6,154.5,6,140.5C6,126.7,17.2,115.5,30.9,115.5z"/>
			<rect id="XMLID_26_" x="11.6" y="209.8" class="st0" width="38.7" height="167.5"/>
		</g>
		<g id="XMLID_21_">
			<path id="XMLID_23_" class="st0" d="M1145.2,115.5c7,0,13,2.5,17.9,7.4c4.9,4.6,7.4,10.6,7.4,17.6c0,7-2.5,13-7.4,17.9
				c-4.9,4.9-10.9,7.4-17.6,7.4c-14.1,0-25.3-11.3-25.3-25.3C1120.3,126.7,1131.5,115.5,1145.2,115.5z"/>
			<rect id="XMLID_22_" x="1125.9" y="209.8" class="st0" width="38.7" height="167.5"/>
		</g>
		<g id="XMLID_17_">
			<path id="XMLID_18_" class="st0" d="M696.8,418.3c-12.7-10.8-30.4-16.2-53-16.2c-6.3,0-16,1.1-29,3.3
				c-13.1,2.2-22.7,3.3-28.8,3.3c-14.1,0-21.1-2.9-21.1-8.8c0-4.3,3.4-7.8,10.1-10.4c6.7-2.7,12.1-4.2,16.1-4.6l33.8-3.5
				c23.5-2.3,42.5-11.3,57-27.1c14.5-15.8,21.7-35.3,21.7-58.5c0-20.9-4.8-38-14.4-51.4h25.5v-35.1H608.4l0.1,0.2
				c-23,0.8-42.6,8.7-58.5,23.9c-16.8,16.1-25.2,36.1-25.2,60.2c0,37.6,16.2,63.9,48.6,79.1c-11.3,2.7-20.8,7.2-28.5,13.3
				c-7.7,6.2-11.5,13.1-11.5,20.7c0,24.7,16.3,37,49,37c6.8,0,16.1-1.2,28.2-3.4c12-2.3,20.4-3.4,25-3.4c27,0,40.4,9.3,40.4,28
				c0,9.5-5.4,17.4-16,23.8c-10.7,6.4-25.3,9.6-43.8,9.6c-18,0-37.5-6.4-58.4-19.2l-28.6,28.6c9.9,7.3,22.9,13.6,38.9,18.7
				c16.5,5.3,32.2,8,47.1,8c29.1,0,53.2-6.5,72.2-19.6c19-13.1,28.5-30.2,28.5-51.4C715.9,444.1,709.5,429.1,696.8,418.3z
				 M566.8,293.8c0-14.3,4.5-26.5,13.4-36.6c9-10,20.5-15,34.8-15c13.2,0,24.2,5,33,15c8.8,10,13.2,22.2,13.2,36.6
				c0,16.6-4.1,30.1-12.3,40.3c-8.2,10.3-19.5,15.4-34,15.4c-14.8,0-26.5-5.3-35.2-15.8C571.2,323.2,566.8,309.9,566.8,293.8z"/>
		</g>
	</g>
</g>
</svg>
