<?xml version="1.0" standalone="no"?>
<!DOCTYPE svg PUBLIC "-//W3C//DTD SVG 20010904//EN"
 "http://www.w3.org/TR/2001/REC-SVG-20010904/DTD/svg10.dtd">
<svg version="1.0" xmlns="http://www.w3.org/2000/svg"
 width="900.000000pt" height="900.000000pt" viewBox="0 0 900.000000 900.000000"
 preserveAspectRatio="xMidYMid meet">
<metadata>
Created by potrace 1.11, written by Peter Selinger 2001-2013
</metadata>
<g transform="translate(0.000000,900.000000) scale(0.100000,-0.100000)"
fill="#000000" stroke="none">
<path d="M4290 8674 c-397 -45 -625 -98 -912 -213 -594 -235 -1112 -665 -1456
-1206 -49 -77 -62 -106 -57 -125 4 -16 3 -20 -3 -12 -7 10 -19 -4 -44 -50
-142 -263 -246 -551 -299 -833 -10 -55 -23 -118 -28 -140 -5 -22 -17 -135 -27
-251 -16 -200 -16 -222 0 -420 10 -115 21 -227 26 -249 4 -22 14 -76 20 -120
14 -93 58 -268 99 -392 182 -553 539 -1061 1006 -1433 179 -142 492 -328 690
-408 203 -83 370 -135 585 -181 147 -33 134 -39 219 102 84 139 246 403 301
492 21 33 70 114 110 180 40 66 83 136 95 155 12 19 72 116 132 215 151 248
273 446 291 473 l15 23 -54 -20 c-336 -124 -756 -108 -1088 40 -350 158 -638
464 -770 821 -83 223 -121 500 -92 655 5 26 15 82 21 123 19 115 81 299 132
387 202 357 487 599 843 718 150 50 226 64 390 71 170 8 306 -6 451 -47 119
-33 114 -32 114 -19 0 6 24 77 54 158 30 81 111 302 180 492 69 190 165 454
214 588 61 167 85 245 78 251 -21 16 -238 80 -376 111 -189 42 -366 61 -600
65 -124 2 -241 1 -260 -1z m-2783 -2631 c-3 -10 -5 -4 -5 12 0 17 2 24 5 18 2
-7 2 -21 0 -30z m1570 -45 c-3 -8 -6 -5 -6 6 -1 11 2 17 5 13 3 -3 4 -12 1
-19z m-20 -50 c-3 -7 -5 -2 -5 12 0 14 2 19 5 13 2 -7 2 -19 0 -25z m-20 -170
c-3 -8 -6 -5 -6 6 -1 11 2 17 5 13 3 -3 4 -12 1 -19z m-1570 -185 c-2 -21 -4
-6 -4 32 0 39 2 55 4 38 2 -18 2 -50 0 -70z m1560 -15 c-2 -13 -4 -3 -4 22 0
25 2 35 4 23 2 -13 2 -33 0 -45z m-687 -302 c0 -3 -4 -8 -10 -11 -5 -3 -10 -1
-10 4 0 6 5 11 10 11 6 0 10 -2 10 -4z m-187 -43 c-7 -2 -19 -2 -25 0 -7 3 -2
5 12 5 14 0 19 -2 13 -5z m-646 -25 c-3 -8 -6 -5 -6 6 -1 11 2 17 5 13 3 -3 4
-12 1 -19z m206 -55 c-7 -2 -19 -2 -25 0 -7 3 -2 5 12 5 14 0 19 -2 13 -5z
m-196 -25 c-3 -8 -6 -5 -6 6 -1 11 2 17 5 13 3 -3 4 -12 1 -19z"/>
<path d="M5930 5318 c-30 -143 -119 -357 -198 -478 -16 -25 -89 -146 -162
-270 -73 -124 -143 -241 -155 -260 -13 -19 -114 -188 -225 -375 -112 -187
-213 -356 -225 -375 -13 -19 -145 -239 -295 -489 -149 -250 -333 -547 -408
-660 -74 -113 -186 -282 -247 -376 -62 -93 -192 -291 -290 -440 -210 -320
-358 -546 -620 -945 -107 -162 -199 -300 -204 -307 -6 -7 -11 -15 -11 -18 0
-3 402 -5 893 -5 l892 0 100 153 c55 83 172 262 261 397 236 359 414 630 554
845 69 104 188 285 265 402 77 117 239 364 360 548 121 184 311 473 422 642
111 169 217 334 235 366 18 32 66 106 107 165 236 341 366 616 469 987 17 61
33 126 37 145 3 19 11 54 17 78 6 23 9 45 6 47 -4 4 -406 76 -1288 231 -80 14
-167 29 -193 35 -82 16 -84 15 -97 -43z"/>
</g>
</svg>
